<mxfile host="Electron" agent="Mozilla/5.0 (Windows NT 10.0; Win64; x64) AppleWebKit/537.36 (KHTML, like Gecko) draw.io/26.0.16 Chrome/132.0.6834.196 Electron/34.2.0 Safari/537.36" version="26.0.16">
  <diagram name="Page-1" id="qrKtyXuNb1GjSBQUhplW">
    <mxGraphModel dx="1434" dy="884" grid="1" gridSize="10" guides="1" tooltips="1" connect="1" arrows="1" fold="1" page="1" pageScale="1" pageWidth="850" pageHeight="1100" math="0" shadow="0">
      <root>
        <mxCell id="0" />
        <mxCell id="1" parent="0" />
        <mxCell id="p8AUSHmtC1lxH9XbJ8Mx-7" style="edgeStyle=orthogonalEdgeStyle;rounded=0;orthogonalLoop=1;jettySize=auto;html=1;entryX=0.5;entryY=0;entryDx=0;entryDy=0;fontSize=16;" edge="1" parent="1" source="p8AUSHmtC1lxH9XbJ8Mx-1" target="p8AUSHmtC1lxH9XbJ8Mx-2">
          <mxGeometry relative="1" as="geometry" />
        </mxCell>
        <mxCell id="p8AUSHmtC1lxH9XbJ8Mx-1" value="Start" style="strokeWidth=2;html=1;shape=mxgraph.flowchart.start_1;whiteSpace=wrap;fillColor=#ffe6cc;strokeColor=#d79b00;fontSize=16;fontStyle=1" vertex="1" parent="1">
          <mxGeometry x="380" y="250" width="100" height="60" as="geometry" />
        </mxCell>
        <mxCell id="p8AUSHmtC1lxH9XbJ8Mx-2" value="READ A, B" style="shape=parallelogram;html=1;strokeWidth=2;perimeter=parallelogramPerimeter;whiteSpace=wrap;rounded=1;arcSize=12;size=0.23;fillColor=#ffe6cc;strokeColor=#d79b00;fontSize=16;" vertex="1" parent="1">
          <mxGeometry x="340" y="370" width="180" height="60" as="geometry" />
        </mxCell>
        <mxCell id="p8AUSHmtC1lxH9XbJ8Mx-3" value="If A &amp;gt; B" style="strokeWidth=2;html=1;shape=mxgraph.flowchart.decision;whiteSpace=wrap;fillColor=#ffe6cc;strokeColor=#d79b00;fontSize=16;fontStyle=1" vertex="1" parent="1">
          <mxGeometry x="380" y="490" width="100" height="100" as="geometry" />
        </mxCell>
        <mxCell id="p8AUSHmtC1lxH9XbJ8Mx-4" value="Print A" style="shape=parallelogram;html=1;strokeWidth=2;perimeter=parallelogramPerimeter;whiteSpace=wrap;rounded=1;arcSize=12;size=0.23;fillColor=#ffe6cc;strokeColor=#d79b00;fontSize=16;" vertex="1" parent="1">
          <mxGeometry x="180" y="650" width="160" height="60" as="geometry" />
        </mxCell>
        <mxCell id="p8AUSHmtC1lxH9XbJ8Mx-5" value="Print B" style="shape=parallelogram;html=1;strokeWidth=2;perimeter=parallelogramPerimeter;whiteSpace=wrap;rounded=1;arcSize=12;size=0.23;fillColor=#ffe6cc;strokeColor=#d79b00;fontSize=16;" vertex="1" parent="1">
          <mxGeometry x="490" y="650" width="160" height="60" as="geometry" />
        </mxCell>
        <mxCell id="p8AUSHmtC1lxH9XbJ8Mx-6" value="End" style="strokeWidth=2;html=1;shape=mxgraph.flowchart.start_1;whiteSpace=wrap;fillColor=#ffe6cc;strokeColor=#d79b00;fontSize=16;fontStyle=1" vertex="1" parent="1">
          <mxGeometry x="380" y="790" width="100" height="60" as="geometry" />
        </mxCell>
        <mxCell id="p8AUSHmtC1lxH9XbJ8Mx-8" style="edgeStyle=orthogonalEdgeStyle;rounded=0;orthogonalLoop=1;jettySize=auto;html=1;entryX=0.5;entryY=0;entryDx=0;entryDy=0;entryPerimeter=0;fontSize=16;" edge="1" parent="1" source="p8AUSHmtC1lxH9XbJ8Mx-2" target="p8AUSHmtC1lxH9XbJ8Mx-3">
          <mxGeometry relative="1" as="geometry" />
        </mxCell>
        <mxCell id="p8AUSHmtC1lxH9XbJ8Mx-9" style="edgeStyle=orthogonalEdgeStyle;rounded=0;orthogonalLoop=1;jettySize=auto;html=1;entryX=0.57;entryY=0.033;entryDx=0;entryDy=0;entryPerimeter=0;fontSize=16;" edge="1" parent="1" source="p8AUSHmtC1lxH9XbJ8Mx-3" target="p8AUSHmtC1lxH9XbJ8Mx-4">
          <mxGeometry relative="1" as="geometry" />
        </mxCell>
        <mxCell id="p8AUSHmtC1lxH9XbJ8Mx-10" style="edgeStyle=orthogonalEdgeStyle;rounded=0;orthogonalLoop=1;jettySize=auto;html=1;entryX=0.57;entryY=0.05;entryDx=0;entryDy=0;entryPerimeter=0;fontSize=16;" edge="1" parent="1" source="p8AUSHmtC1lxH9XbJ8Mx-3" target="p8AUSHmtC1lxH9XbJ8Mx-5">
          <mxGeometry relative="1" as="geometry" />
        </mxCell>
        <mxCell id="p8AUSHmtC1lxH9XbJ8Mx-13" value="" style="endArrow=none;html=1;rounded=0;fontSize=16;" edge="1" parent="1">
          <mxGeometry width="50" height="50" relative="1" as="geometry">
            <mxPoint x="274.5" y="820" as="sourcePoint" />
            <mxPoint x="274.5" y="710" as="targetPoint" />
          </mxGeometry>
        </mxCell>
        <mxCell id="p8AUSHmtC1lxH9XbJ8Mx-14" value="" style="endArrow=none;html=1;rounded=0;fontSize=16;" edge="1" parent="1">
          <mxGeometry width="50" height="50" relative="1" as="geometry">
            <mxPoint x="575" y="820" as="sourcePoint" />
            <mxPoint x="575" y="710" as="targetPoint" />
          </mxGeometry>
        </mxCell>
        <mxCell id="p8AUSHmtC1lxH9XbJ8Mx-15" value="" style="endArrow=classic;html=1;rounded=0;entryX=0;entryY=0.5;entryDx=0;entryDy=0;entryPerimeter=0;fontSize=16;" edge="1" parent="1" target="p8AUSHmtC1lxH9XbJ8Mx-6">
          <mxGeometry width="50" height="50" relative="1" as="geometry">
            <mxPoint x="275" y="820" as="sourcePoint" />
            <mxPoint x="325" y="770" as="targetPoint" />
          </mxGeometry>
        </mxCell>
        <mxCell id="p8AUSHmtC1lxH9XbJ8Mx-16" value="" style="endArrow=classic;html=1;rounded=0;entryX=1;entryY=0.5;entryDx=0;entryDy=0;entryPerimeter=0;fontSize=16;" edge="1" parent="1" target="p8AUSHmtC1lxH9XbJ8Mx-6">
          <mxGeometry width="50" height="50" relative="1" as="geometry">
            <mxPoint x="575" y="820" as="sourcePoint" />
            <mxPoint x="625" y="770" as="targetPoint" />
          </mxGeometry>
        </mxCell>
        <mxCell id="p8AUSHmtC1lxH9XbJ8Mx-17" value="True" style="text;html=1;align=center;verticalAlign=middle;resizable=0;points=[];autosize=1;strokeColor=none;fillColor=none;fontSize=16;fontStyle=1" vertex="1" parent="1">
          <mxGeometry x="260" y="508" width="60" height="30" as="geometry" />
        </mxCell>
        <mxCell id="p8AUSHmtC1lxH9XbJ8Mx-18" value="False" style="text;html=1;align=center;verticalAlign=middle;resizable=0;points=[];autosize=1;strokeColor=none;fillColor=none;fontSize=16;fontStyle=1" vertex="1" parent="1">
          <mxGeometry x="540" y="508" width="60" height="30" as="geometry" />
        </mxCell>
        <mxCell id="p8AUSHmtC1lxH9XbJ8Mx-19" value="&lt;font style=&quot;color: rgb(51, 51, 255);&quot;&gt;Greatest&lt;/font&gt; From 2 Numbers" style="text;html=1;align=center;verticalAlign=middle;resizable=0;points=[];autosize=1;strokeColor=none;fillColor=none;fontSize=24;fontStyle=7" vertex="1" parent="1">
          <mxGeometry x="80" y="80" width="300" height="40" as="geometry" />
        </mxCell>
      </root>
    </mxGraphModel>
  </diagram>
</mxfile>
